<svg xmlns="http://www.w3.org/2000/svg" xmlns:xlink="http://www.w3.org/1999/xlink" width="270" zoomAndPan="magnify" viewBox="0 0 202.5 202.499993" height="270" preserveAspectRatio="xMidYMid meet" version="1.0"><defs><g/><clipPath id="22a44e29e1"><path d="M 0 0 L 202 0 L 202 202 L 0 202 Z M 0 0 " clip-rule="nonzero"/></clipPath><clipPath id="b8059134f6"><path d="M 18.75 0 L 183.039062 0 C 193.394531 0 201.789062 8.394531 201.789062 18.75 L 201.789062 183.75 C 201.789062 194.105469 193.394531 202.5 183.039062 202.5 L 18.75 202.5 C 8.394531 202.5 0 194.105469 0 183.75 L 0 18.75 C 0 8.394531 8.394531 0 18.75 0 " clip-rule="nonzero"/></clipPath></defs><g clip-path="url(#22a44e29e1)"><g clip-path="url(#b8059134f6)"><path fill="#212f4d" d="M 0 0 L 202.183594 0 L 202.183594 202.183594 L 0 202.183594 Z M 0 0 " fill-opacity="1" fill-rule="nonzero"/></g></g><g fill="#ffffff" fill-opacity="1"><g transform="translate(41.693337, 181.969188)"><g><path d="M 95.167969 -154.429688 L 95.167969 -44.976562 C 95.167969 -16.023438 79.917969 -1.929688 50.382812 -1.929688 C 35.324219 -1.929688 21.425781 -2.703125 14.089844 -3.28125 L 22.585938 -28.375 C 28.375 -27.796875 38.414062 -27.023438 45.363281 -27.023438 C 58.296875 -27.023438 68.527344 -36.097656 68.527344 -54.242188 L 68.527344 -154.429688 Z M 104.816406 -159.253906 C 104.816406 -161.183594 102.886719 -164.078125 99.992188 -164.078125 L 63.703125 -164.078125 C 61.578125 -164.078125 58.875 -162.148438 58.875 -159.253906 L 58.875 -54.242188 C 58.875 -40.152344 53.085938 -36.675781 45.363281 -36.675781 C 36.484375 -36.675781 19.691406 -38.414062 19.691406 -38.414062 C 17.566406 -38.800781 15.441406 -37.449219 14.671875 -35.132812 L 3.089844 -0.386719 C 1.351562 4.824219 5.984375 5.792969 7.140625 5.792969 C 7.335938 5.792969 27.21875 7.722656 50.382812 7.722656 C 84.355469 7.722656 104.816406 -11.195312 104.816406 -44.976562 Z M 104.816406 -159.253906 "/></g></g></g></svg>